<svg width="210" height="331" viewBox="0 0 210 331" fill="none" xmlns="http://www.w3.org/2000/svg">
<path d="M197.121 239.907C186.426 200.493 232.607 162.845 259.784 190.022C271.505 201.743 272.843 220.693 266.103 236.467C250.534 272.898 206.298 273.751 197.121 239.907Z" fill="#FAC663" fill-opacity="0.15"/>
<path d="M176.579 208.985C206.64 239.046 164.627 299.06 127.681 278.887C110.85 269.695 105.219 245.734 117.221 224.227C130.669 200.116 159.679 192.085 176.579 208.985Z" fill="#FAC663" fill-opacity="0.15"/>
<path d="M259.652 110.449C254.324 107.428 246.171 100.762 238.309 93.1135C229.991 85.0355 221.995 75.8654 217.978 68.7757C207.155 49.6014 176.644 39.2948 160.141 64.7533C144.887 88.2911 160.874 102.068 146.012 123.969C130.981 146.092 135.795 168.837 149.891 181.531C162.938 193.278 183.938 196.41 204.487 182.436C226.38 167.54 240.116 183.507 263.641 168.253C289.133 151.75 278.729 121.251 259.652 110.449Z" fill="#FAC663" fill-opacity="0.15"/>
<path d="M123.674 156.077C132.177 164.58 134.544 176.818 131.049 188.429C120.652 222.952 69.7465 234.233 53.7866 204.955C33.588 167.937 93.6295 126.032 123.674 156.077Z" fill="#FAC663" fill-opacity="0.15"/>
<path d="M144.467 108.109C130.518 141.362 78.8105 147.311 66.0305 116.39C50.6349 79.1445 109.363 43.6334 138.304 72.5739C147.591 81.8616 149.77 95.4682 144.467 108.109Z" fill="#FAC663" fill-opacity="0.15"/>
</svg>
