<svg width="91" height="91" viewBox="0 0 91 91" fill="none" xmlns="http://www.w3.org/2000/svg">
<rect width="91" height="91" fill="#E5E5E5"/>
<g clip-path="url(#clip0)">
<rect width="1366" height="3560" transform="translate(-128 -1186)" fill="#FFFEFD"/>
<g filter="url(#filter0_d)">
<rect x="-30" y="-30" width="370" height="321" rx="8" fill="white"/>
<rect x="-29.5" y="-29.5" width="369" height="320" rx="7.5" stroke="#FFFDFB"/>
</g>
<rect width="91" height="91" rx="45.5" fill="#FAC663"/>
<path d="M47.1588 46.617C50.4341 46.617 53.1139 50.0596 53.1139 50.9203C53.1139 51.7809 50.4341 54.6498 47.1588 54.6498C43.8835 54.6498 41.5015 50.9203 41.5015 50.9203C41.5015 50.9203 43.8835 46.617 47.1588 46.617Z" fill="#FFFDFB"/>
<path d="M37.9285 47.4777L41.5015 50.9203M41.5015 50.9203L37.9285 54.3629M41.5015 50.9203C41.5015 50.9203 43.8835 54.6498 47.1588 54.6498C50.4341 54.6498 53.1139 51.7809 53.1139 50.9203C53.1139 50.0596 50.4341 46.617 47.1588 46.617C43.8835 46.617 41.5015 50.9203 41.5015 50.9203Z" stroke="#FFFDFB" stroke-width="2" stroke-linecap="round" stroke-linejoin="round"/>
<mask id="path-6-inside-1" fill="white">
<path d="M71.9845 61.2945L68.6578 38.8874C68.5486 38.1515 67.8936 37.6044 67.1209 37.6044H63.0462C62.3296 34.5089 59.5072 33.5921 59.1959 33.4925C57.6682 30.5445 54.5251 30.4075 54.1875 30.3962C52.323 28.4596 49.814 28.4502 48.4768 28.781C47.2867 28.0992 44.8768 27.4323 42.523 28.781C41.1854 28.4502 38.6759 28.4599 36.8119 30.3962C36.4779 30.4075 33.3303 30.5445 31.8035 33.4929C31.4869 33.5941 28.6677 34.5151 27.9532 37.6044H23.8789C23.1062 37.6044 22.4511 38.1515 22.3419 38.8874L19.0157 61.2945C18.9518 61.7233 19.0848 62.1575 19.3796 62.4848C19.6744 62.8121 20.1026 63 20.5527 63H70.4471C70.8972 63 71.325 62.8121 71.6201 62.4848C71.9149 62.1575 72.048 61.7233 71.9845 61.2945ZM32.5379 35.1035C33.1695 35.0319 33.6916 34.5969 33.8561 34.0058C34.1691 32.8796 36.1859 32.0773 37.2821 32.2559C37.9109 32.3586 38.5409 32.0808 38.8704 31.5558C39.4624 30.6138 41.0511 30.1561 42.0891 30.6457C42.6625 30.9161 43.3495 30.8212 43.8206 30.4063C44.6661 29.6619 46.3308 29.6592 47.1796 30.4063C47.6507 30.8212 48.3373 30.9161 48.911 30.6457C49.9345 30.1631 52.1244 30.6001 52.7248 31.5558C53.0548 32.0811 53.6848 32.3582 54.3135 32.2559C55.4292 32.0734 57.4318 32.8987 57.7395 34.0058C57.9037 34.5969 58.4261 35.0319 59.0573 35.1035C59.2078 35.1206 60.3315 36.4616 60.9554 37.6048H30.044C30.6141 36.5588 32.233 35.1381 32.5379 35.1035ZM20.5562 61.7328L24.0348 38.8716H66.965L70.4435 61.7328H20.5562Z"/>
<path d="M32.5379 35.1035C33.1695 35.0319 33.6916 34.5969 33.8561 34.0058C34.1691 32.8796 36.1859 32.0773 37.2821 32.2559C37.9109 32.3586 38.5409 32.0808 38.8704 31.5558C39.4624 30.6138 41.0511 30.1561 42.0891 30.6457C42.6625 30.9161 43.3495 30.8212 43.8206 30.4063C44.6661 29.6619 46.3308 29.6592 47.1796 30.4063C47.6507 30.8212 48.3373 30.9161 48.911 30.6457C49.9345 30.1631 52.1244 30.6001 52.7248 31.5558C53.0548 32.0811 53.6848 32.3582 54.3135 32.2559C55.4292 32.0734 57.4318 32.8987 57.7395 34.0058C57.9037 34.5969 58.4261 35.0319 59.0573 35.1035C59.2078 35.1206 60.3315 36.4616 60.9554 37.6048H30.044C30.6141 36.5588 32.233 35.1381 32.5379 35.1035Z"/>
</mask>
<path d="M71.9845 61.2945L68.6578 38.8874C68.5486 38.1515 67.8936 37.6044 67.1209 37.6044H63.0462C62.3296 34.5089 59.5072 33.5921 59.1959 33.4925C57.6682 30.5445 54.5251 30.4075 54.1875 30.3962C52.323 28.4596 49.814 28.4502 48.4768 28.781C47.2867 28.0992 44.8768 27.4323 42.523 28.781C41.1854 28.4502 38.6759 28.4599 36.8119 30.3962C36.4779 30.4075 33.3303 30.5445 31.8035 33.4929C31.4869 33.5941 28.6677 34.5151 27.9532 37.6044H23.8789C23.1062 37.6044 22.4511 38.1515 22.3419 38.8874L19.0157 61.2945C18.9518 61.7233 19.0848 62.1575 19.3796 62.4848C19.6744 62.8121 20.1026 63 20.5527 63H70.4471C70.8972 63 71.325 62.8121 71.6201 62.4848C71.9149 62.1575 72.048 61.7233 71.9845 61.2945ZM32.5379 35.1035C33.1695 35.0319 33.6916 34.5969 33.8561 34.0058C34.1691 32.8796 36.1859 32.0773 37.2821 32.2559C37.9109 32.3586 38.5409 32.0808 38.8704 31.5558C39.4624 30.6138 41.0511 30.1561 42.0891 30.6457C42.6625 30.9161 43.3495 30.8212 43.8206 30.4063C44.6661 29.6619 46.3308 29.6592 47.1796 30.4063C47.6507 30.8212 48.3373 30.9161 48.911 30.6457C49.9345 30.1631 52.1244 30.6001 52.7248 31.5558C53.0548 32.0811 53.6848 32.3582 54.3135 32.2559C55.4292 32.0734 57.4318 32.8987 57.7395 34.0058C57.9037 34.5969 58.4261 35.0319 59.0573 35.1035C59.2078 35.1206 60.3315 36.4616 60.9554 37.6048H30.044C30.6141 36.5588 32.233 35.1381 32.5379 35.1035ZM20.5562 61.7328L24.0348 38.8716H66.965L70.4435 61.7328H20.5562Z" fill="#FFFDFB"/>
<path d="M32.5379 35.1035C33.1695 35.0319 33.6916 34.5969 33.8561 34.0058C34.1691 32.8796 36.1859 32.0773 37.2821 32.2559C37.9109 32.3586 38.5409 32.0808 38.8704 31.5558C39.4624 30.6138 41.0511 30.1561 42.0891 30.6457C42.6625 30.9161 43.3495 30.8212 43.8206 30.4063C44.6661 29.6619 46.3308 29.6592 47.1796 30.4063C47.6507 30.8212 48.3373 30.9161 48.911 30.6457C49.9345 30.1631 52.1244 30.6001 52.7248 31.5558C53.0548 32.0811 53.6848 32.3582 54.3135 32.2559C55.4292 32.0734 57.4318 32.8987 57.7395 34.0058C57.9037 34.5969 58.4261 35.0319 59.0573 35.1035C59.2078 35.1206 60.3315 36.4616 60.9554 37.6048H30.044C30.6141 36.5588 32.233 35.1381 32.5379 35.1035Z" fill="#FFFDFB"/>
<path d="M71.9845 61.2945L68.6578 38.8874C68.5486 38.1515 67.8936 37.6044 67.1209 37.6044H63.0462C62.3296 34.5089 59.5072 33.5921 59.1959 33.4925C57.6682 30.5445 54.5251 30.4075 54.1875 30.3962C52.323 28.4596 49.814 28.4502 48.4768 28.781C47.2867 28.0992 44.8768 27.4323 42.523 28.781C41.1854 28.4502 38.6759 28.4599 36.8119 30.3962C36.4779 30.4075 33.3303 30.5445 31.8035 33.4929C31.4869 33.5941 28.6677 34.5151 27.9532 37.6044H23.8789C23.1062 37.6044 22.4511 38.1515 22.3419 38.8874L19.0157 61.2945C18.9518 61.7233 19.0848 62.1575 19.3796 62.4848C19.6744 62.8121 20.1026 63 20.5527 63H70.4471C70.8972 63 71.325 62.8121 71.6201 62.4848C71.9149 62.1575 72.048 61.7233 71.9845 61.2945ZM32.5379 35.1035C33.1695 35.0319 33.6916 34.5969 33.8561 34.0058C34.1691 32.8796 36.1859 32.0773 37.2821 32.2559C37.9109 32.3586 38.5409 32.0808 38.8704 31.5558C39.4624 30.6138 41.0511 30.1561 42.0891 30.6457C42.6625 30.9161 43.3495 30.8212 43.8206 30.4063C44.6661 29.6619 46.3308 29.6592 47.1796 30.4063C47.6507 30.8212 48.3373 30.9161 48.911 30.6457C49.9345 30.1631 52.1244 30.6001 52.7248 31.5558C53.0548 32.0811 53.6848 32.3582 54.3135 32.2559C55.4292 32.0734 57.4318 32.8987 57.7395 34.0058C57.9037 34.5969 58.4261 35.0319 59.0573 35.1035C59.2078 35.1206 60.3315 36.4616 60.9554 37.6048H30.044C30.6141 36.5588 32.233 35.1381 32.5379 35.1035ZM20.5562 61.7328L24.0348 38.8716H66.965L70.4435 61.7328H20.5562Z" stroke="#FFFDFB" stroke-width="2" mask="url(#path-6-inside-1)"/>
<path d="M32.5379 35.1035C33.1695 35.0319 33.6916 34.5969 33.8561 34.0058C34.1691 32.8796 36.1859 32.0773 37.2821 32.2559C37.9109 32.3586 38.5409 32.0808 38.8704 31.5558C39.4624 30.6138 41.0511 30.1561 42.0891 30.6457C42.6625 30.9161 43.3495 30.8212 43.8206 30.4063C44.6661 29.6619 46.3308 29.6592 47.1796 30.4063C47.6507 30.8212 48.3373 30.9161 48.911 30.6457C49.9345 30.1631 52.1244 30.6001 52.7248 31.5558C53.0548 32.0811 53.6848 32.3582 54.3135 32.2559C55.4292 32.0734 57.4318 32.8987 57.7395 34.0058C57.9037 34.5969 58.4261 35.0319 59.0573 35.1035C59.2078 35.1206 60.3315 36.4616 60.9554 37.6048H30.044C30.6141 36.5588 32.233 35.1381 32.5379 35.1035Z" stroke="#FFFDFB" stroke-width="2" mask="url(#path-6-inside-1)"/>
</g>
<defs>
<filter id="filter0_d" x="-55" y="-55" width="420" height="371" filterUnits="userSpaceOnUse" color-interpolation-filters="sRGB">
<feFlood flood-opacity="0" result="BackgroundImageFix"/>
<feColorMatrix in="SourceAlpha" type="matrix" values="0 0 0 0 0 0 0 0 0 0 0 0 0 0 0 0 0 0 127 0"/>
<feOffset/>
<feGaussianBlur stdDeviation="12.5"/>
<feColorMatrix type="matrix" values="0 0 0 0 0.815951 0 0 0 0 0.815951 0 0 0 0 0.815951 0 0 0 0.25 0"/>
<feBlend mode="normal" in2="BackgroundImageFix" result="effect1_dropShadow"/>
<feBlend mode="normal" in="SourceGraphic" in2="effect1_dropShadow" result="shape"/>
</filter>
<clipPath id="clip0">
<rect width="1366" height="3560" fill="white" transform="translate(-128 -1186)"/>
</clipPath>
</defs>
</svg>
